<svg xmlns="http://www.w3.org/2000/svg" width="138" height="267" fill="none"><path fill="#FFF" d="M126.739 210.304c-6.67 0-13.19-2.664-18.081-7.696l-39.485-40.632a8.414 8.414 0 0 1 .164-11.885c3.332-3.232 8.66-3.166 11.887.171l3.807 3.916 35.677 36.713a8.462 8.462 0 0 0 9.415 1.9 8.457 8.457 0 0 0 5.18-8.093l-1.288-40.186-.042.009c-.951-15.864-5.835-30.42-13.529-42.331-4.012-6.21-4.811-14.008-2.108-20.89a47.486 47.486 0 0 0 3.275-17.35c.001-28.038-24.413-50.76-54.522-50.76-30.117 0-54.53 22.723-54.53 50.759a47.337 47.337 0 0 0 3.277 17.336 23.037 23.037 0 0 1-2.1 20.904C5.131 115.499 0 132.097 0 150.146c0 29.137 13.33 54.531 33.122 68.317l-.015.022.21.118a62.556 62.556 0 0 0 11.2 6.156l71.833 39.497a14.14 14.14 0 0 0 6.83 1.755 14.13 14.13 0 0 0 7.41-2.093 14.182 14.182 0 0 0 6.763-12.534l-1.346-42.906c-3.02 1.185-6.154 1.826-9.268 1.826ZM25.416 70.722c0-18.13 9.981-32.826 22.285-32.826 6.074 0 11.96 6.118 15.958 11.934 1.465 2.132 1.528 5.496 2.93 5.496 1.406 0 1.466-3.368 2.932-5.496 4.007-5.82 10.204-11.934 16.267-11.934 12.314 0 22.294 14.697 22.294 32.826 0 18.131-12.214 35.866-41.338 35.866-28.606 0-41.328-17.735-41.328-35.866Z"/><path fill="#FFF" d="M68.304 68.507a2.262 2.262 0 0 0-2.44 0c-2.44 1.572-7.701 5.499-7.701 10.091 0 4.69 5.49 15.787 7.855 20.358a1.201 1.201 0 0 0 2.133 0c2.36-4.565 7.842-15.668 7.842-20.358 0-4.592-5.26-8.515-7.689-10.091ZM114.423 37.659c4.051-4.263 8.337-10.167 9.468-13.48 4.025-11.786-5.94-21.022-6.367-21.41L114.478 0l-17.97 21.347c-8.507-5.581-16.39-7.335-27.284-7.335-10.893 0-23.312 1.754-31.819 7.335L19.435 0l-3.047 2.77c-.426.386-10.392 9.623-6.367 21.41 1.842 5.39 10.737 14.342 10.737 14.342S46.136 25.326 63.46 26.258c9.588.516-5.994 5.745 23.905 5.745 29.898 0 28.715 41.399 28.715 11.338 0-10.448-14.484-13.692-19.573-21.994 6.532 10.656 16.861 17.422 17.915 16.312Z"/></svg>