<svg fill="none" height="268" viewBox="0 0 138 268" width="138" xmlns="http://www.w3.org/2000/svg"><g fill="#9e0001"><path d="m127.329 211.284c-6.701 0-13.252-2.676-18.165-7.732l-39.6687-40.822c-3.2475-3.343-3.1729-8.688.1643-11.94 3.3481-3.246 8.701-3.181 11.9424.172l3.8253 3.934 35.8417 36.884c2.473 2.543 6.202 3.294 9.46 1.909 3.274-1.39 5.311-4.581 5.204-8.13l-1.294-40.373-.043.009c-.955-15.938-5.862-30.562-13.591-42.529-4.031-6.2389-4.834-14.0725-2.118-20.9873 2.128-5.4406 3.29-11.3076 3.29-17.4306.001-28.1676-24.5265-50.9957-54.7757-50.9957-30.2575 0-54.7848 22.8281-54.7848 50.9947 0 6.1194 1.1623 11.9822 3.2937 17.4171 2.7174 6.9314 1.9277 14.7463-2.1111 21.0008-8.64356 13.372-13.7991 30.047-13.7991 48.18 0 29.273 13.3923 54.786 33.2765 68.636l-.0155.021.2119.12c3.5538 2.456 7.3247 4.522 11.2506 6.184l72.1685 39.681c2.134 1.177 4.501 1.764 6.861 1.764 2.58 0 5.169-.701 7.444-2.103 4.356-2.672 6.96-7.48 6.796-12.594l-1.353-43.105c-3.034 1.191-6.182 1.835-9.311 1.835zm-101.7949-140.2325c0-18.213 10.0276-32.9785 22.3892-32.9785 6.1018 0 12.0157 6.1463 16.0317 11.9895 1.4724 2.1423 1.5353 5.5215 2.9448 5.5215 1.4116 0 1.4724-3.3831 2.9448-5.5215 4.0259-5.8468 10.251-11.9895 16.3424-11.9895 12.3714 0 22.398 14.7655 22.398 32.9785 0 18.2162-12.2704 36.0335-41.5304 36.0335-28.7386 0-41.5205-17.8178-41.5205-36.0335z"/><path d="m68.6221 68.8255c-.7502-.4783-1.7062-.4783-2.451 0-2.4516 1.5793-7.7375 5.5247-7.7375 10.1386 0 4.7119 5.5157 15.8607 7.8915 20.4523.21.4013.6209.6506 1.0703.6506.4506 0 .8627-.2493 1.0733-.6506 2.3704-4.5862 7.8777-15.7404 7.8777-20.4523 0-4.6139-5.2847-8.5551-7.7243-10.1386z"/><path d="m114.956 37.834c4.07-4.2826 8.375-10.2141 9.512-13.5425 4.044-11.8409-5.968-21.1203-6.397-21.50979l-3.06-2.78171319-18.0543 21.44640319c-8.5462-5.6071-16.4668-7.3691-27.4107-7.3691s-23.4208 1.762-31.967 7.3691l-18.0545-21.44640319-3.0603 2.78195319c-.4282.38901-10.44024 9.66865-6.3961 21.50985 1.8499 5.4165 10.7863 14.4097 10.7863 14.4097s25.4958-13.258 42.9023-12.3214c9.6318.5182-6.0223 5.7716 24.0156 5.7716 30.0377 0 28.8487 41.592 28.8487 11.3914 0-10.4967-14.551-13.7556-19.6643-22.0967 6.5623 10.7053 16.9393 17.5029 17.9993 16.3876z"/></g></svg>